# xmcd
# 
# Track frame offsets:
#     187
#     18322
#     36072
#     52807
#     67927
#     87657
#     104494
#     124894
#     142234
#     161807
#     179144
# 
# Disc length: 2668
# 
# Revision: 7
# Processed by: cddbd v1.5.2PL0 Copyright (c) Steve Scherf et al.
# Submitted via: fre:ac v1.0.17
# 
DISCID=9f0a6a0b
DTITLE=荻野目洋子 - ラズベリーの風
DYEAR=0
DGENRE=Pop
TTITLE0=涙はスピード揺らすから
TTITLE1=フラミンゴ in パラダイス
TTITLE2=1・2・3,レット・ミー・ダンス
TTITLE3=黄昏のネイバーフッド
TTITLE4=スロープに天気雨
TTITLE5=ダンシング・ヒーロー (Eat You Up)
TTITLE6=LAZY DANCE
TTITLE7=ビーチボーイズを止めないで
TTITLE8=涙しか見えない
TTITLE9=真夜中のストレンジャー
TTITLE10=夏のステージ・ライト
EXTD=
EXTT0=
EXTT1=
EXTT2=
EXTT3=
EXTT4=
EXTT5=
EXTT6=
EXTT7=
EXTT8=
EXTT9=
EXTT10=
PLAYORDER=
